<svg width="200" height="200" viewBox="0 0 200 200" fill="none" xmlns="http://www.w3.org/2000/svg">
  <rect width="200" height="200" rx="32" fill="#F3F4F6"/>
  
  <!-- Top Left Circle -->
  <path d="M32 32H100C132.032 32 158 57.9675 158 90V100C158 67.9675 132.032 42 100 42H90C57.9675 42 32 67.9675 32 100V32Z" fill="#4C1D95"/>
  
  <!-- Top Right Circle -->
  <path d="M168 32H100C132.032 32 158 57.9675 158 90V100C158 67.9675 132.032 42 100 42H110C142.032 42 168 67.9675 168 100V32Z" fill="#4C1D95"/>
  
  <!-- Bottom Left Circle -->
  <path d="M32 168H100C67.9675 168 42 142.032 42 110V100C42 132.032 67.9675 158 100 158H90C57.9675 158 32 132.032 32 100V168Z" fill="#4C1D95"/>
  
  <!-- Bottom Right Circle -->
  <path d="M168 168H100C132.032 168 158 142.032 158 110V100C158 132.032 132.032 158 100 158H110C142.032 158 168 132.032 168 100V168Z" fill="#4C1D95"/>
  
  <!-- Center Diamond -->
  <path d="M100 80L120 100L100 120L80 100L100 80Z" fill="#4C1D95"/>
</svg>